PathFileType	4	(X/Y/Z)	/private/var/folders/ty/39vw2z0n5t95rf49mx2f_75w0000gn/T/tmpv4vay5ru_Sports2D/tmpv4vay5ru_Sports2D_px_person00.trc
DataRate	CameraRate	NumFrames	NumMarkers	Units	OrigDataRate	OrigDataStartFrame	OrigNumFrames
60	60	9	22	m	60	110	220
Frame#	Time	Hip			RHip			RKnee			RAnkle			RBigToe			RSmallToe			RHeel			LHip			LKnee			LAnkle			LBigToe			LSmallToe			LHeel			Neck			Head			Nose			RShoulder			RElbow			RWrist			LShoulder			LElbow			LWrist		
		X1	Y1	Z1	X2	Y2	Z2	X3	Y3	Z3	X4	Y4	Z4	X5	Y5	Z5	X6	Y6	Z6	X7	Y7	Z7	X8	Y8	Z8	X9	Y9	Z9	X10	Y10	Z10	X11	Y11	Z11	X12	Y12	Z12	X13	Y13	Z13	X14	Y14	Z14	X15	Y15	Z15	X16	Y16	Z16	X17	Y17	Z17	X18	Y18	Z18	X19	Y19	Z19	X20	Y20	Z20	X21	Y21	Z21	X22	Y22	Z22
110	1.8333333333333333	1431.0324583021138	633.8770372289206	0.0	1404.4188195132692	639.7838271247715	0.0	1434.3533998500668	676.5369377744696	0.0	1437.9649831879485	761.5644541104012	0.0	1450.5037732877288	790.0614615361746	0.0	1433.4297204477907	790.429296084064	0.0	1437.1759182815272	772.4903374467217	0.0	1456.7441652893333	629.9044399771284	0.0	1537.6292054000198	701.1013173690188	0.0	1564.429657625247	754.455708613046	0.0	1602.6578244420282	776.4364254078578	0.0	1604.6808263929554	767.2954992423263	0.0	1560.4376199763742	765.4744440911866	0.0	1442.776426198672	550.9787659537402	0.0	1469.7898148949187	483.6572841390367	0.0	1478.6047963459853	530.8422651662647	0.0	1396.7080817064489	564.538554849754	0.0	1372.5143213299255	642.228943220523	0.0	1390.4620131066347	699.8624772947315	0.0	1483.8045865347094	546.0643683570829	0.0	1528.868805555388	556.9896196812101	0.0	1586.6026999720489	558.4094852341462	0.0
111	1.8499999999999999	1436.9229164752287	633.9568435038824	0.0	1410.6708844191623	639.2916373983732	0.0	1437.2820415421054	677.4015377450852	0.0	1446.7826767797858	760.9901683977304	0.0	1460.3698585011462	789.8315322986612	0.0	1442.947804847109	790.4136478481342	0.0	1446.9858757387267	770.9400848611067	0.0	1462.2961750901673	629.9651911783104	0.0	1543.5873749327557	702.4826185660598	0.0	1567.4170402765094	754.0974267856358	0.0	1604.9140910275362	777.137328067232	0.0	1606.9269918246084	767.3431209355862	0.0	1563.5252332670912	764.4038550629277	0.0	1450.3032739759587	552.7905342380823	0.0	1476.35499016865	484.6980467985926	0.0	1484.7445986525115	533.2325428007478	0.0	1403.1411541828568	565.0211778588892	0.0	1380.4446073339284	644.662167887389	0.0	1397.3979121928166	707.5434591434669	0.0	1492.7371566785978	547.9410802758733	0.0	1546.6445124862132	560.0259533265311	0.0	1611.575533581278	562.3221025372096	0.0
112	1.8666666666666667	1441.827339399154	633.8528505102261	0.0	1415.8509061574462	638.7696087386764	0.0	1440.439462892981	678.5030808741477	0.0	1455.6199280649455	760.363517797035	0.0	1470.3406140344675	789.6590758218572	0.0	1452.34546534115	790.3300790171375	0.0	1456.6380709633147	769.2944483268294	0.0	1466.9903817820255	629.9694204613088	0.0	1548.2668664817497	703.5361230008648	0.0	1570.3025736019536	753.8021459790323	0.0	1607.3795921876574	778.1756495541317	0.0	1609.2235695212587	767.7451545824558	0.0	1566.6166390479088	763.389907663293	0.0	1457.2168631349466	553.9583420736121	0.0	1482.3559432661805	485.14784975924783	0.0	1490.2414638951118	534.7665313917602	0.0	1409.0598538744255	564.7384517996842	0.0	1387.134784790067	646.0782137483533	0.0	1401.9851476763038	713.5987532182859	0.0	1500.733451805345	549.4500476868441	0.0	1561.470852073637	564.7964939577805	0.0	1632.186052109892	569.6465908732171	0.0
113	1.8833333333333333	1445.8004673020296	633.7458058484428	0.0	1419.8472445604439	638.5072313014405	0.0	1444.0012625617283	679.6573551949026	0.0	1463.6747790728398	759.7927043177407	0.0	1479.3016421954555	789.6022118639856	0.0	1460.5904521071832	790.204924459328	0.0	1465.316767816858	767.8770148747027	0.0	1470.9628249389673	630.1078253151197	0.0	1551.8419975935317	704.3038030827724	0.0	1573.0576081630536	753.5242461041972	0.0	1609.9067264057421	779.1423879421966	0.0	1611.5090867407548	768.2839780650376	0.0	1569.59637255561	762.521408397984	0.0	1463.4417477066943	554.5995240343204	0.0	1487.6555584139153	485.25670938389106	0.0	1494.8297226695179	535.660391421959	0.0	1414.5270646465208	563.8041998822902	0.0	1392.5308497349795	646.4169735976822	0.0	1403.9806658973562	717.6359266018338	0.0	1507.6877151911706	550.5676034722479	0.0	1573.2270771621786	570.4921591655936	0.0	1647.9400376306528	579.1263071392805	0.0
114	1.9	1448.989831090949	633.7395935369126	0.0	1422.7859825190433	638.6563770459937	0.0	1447.9475959244833	680.6369824833307	0.0	1470.2808152579673	759.382953091983	0.0	1486.5595934572955	789.6579106275798	0.0	1467.1218207434745	790.0797265809211	0.0	1472.290511663323	767.046206822519	0.0	1474.3541523241586	630.4414130846972	0.0	1554.4937504906115	704.7274690104497	0.0	1575.7563508713283	753.2232553408777	0.0	1612.4072229949945	779.7434383566097	0.0	1613.905983556714	768.7931658286317	0.0	1572.4410400672562	761.8543978531427	0.0	1468.8580381055408	554.8529448454982	0.0	1492.1638255150021	485.16507843319664	0.0	1498.3146942350172	536.1472831430038	0.0	1419.5191712530413	562.4579826175767	0.0	1396.523096174846	645.6887289823902	0.0	1403.1661984229281	719.4231185733934	0.0	1513.489823116691	551.2888699802663	0.0	1581.7443320713012	576.4688476270479	0.0	1658.3736273273691	589.6137521266594	0.0
115	1.9166666666666667	1451.5351000821156	633.7939485526085	0.0	1424.9141490167897	639.0865227651294	0.0	1452.082287575104	681.2730297984097	0.0	1475.1222968037084	759.1927858034464	0.0	1491.8970027061443	789.7724093964542	0.0	1471.8785767576305	789.9935768792385	0.0	1477.1595952964183	767.0137406632151	0.0	1477.3003168181144	630.8495029696599	0.0	1556.3838646949073	704.7349999013463	0.0	1578.5243904895524	752.8943724049062	0.0	1614.8163098123803	779.8921405767986	0.0	1616.5317449575773	769.1899795390127	0.0	1575.260887876058	761.3935280970557	0.0	1473.2758317157236	554.8008318708785	0.0	1495.8578989262903	484.9155462662269	0.0	1500.594778217964	536.3692508583545	0.0	1423.894167519348	560.9672193151991	0.0	1398.988626569588	643.9829503871201	0.0	1399.407004451752	718.8574444397436	0.0	1518.0421754476042	551.6046589656239	0.0	1586.8397709902838	582.229395471743	0.0	1663.124857510669	600.1726427646479	0.0
116	1.9333333333333333	1453.4161231606515	633.7512788325678	0.0	1426.343740691801	639.4446841805196	0.0	1456.1154976749579	681.5350868291557	0.0	1478.2476771909346	759.1927115833321	0.0	1495.513811432051	789.8416931476864	0.0	1475.178271686487	789.9510332777301	0.0	1479.9336969124383	767.6700936489701	0.0	1479.8098093220763	631.0615812650129	0.0	1557.6272579765375	704.2886806891094	0.0	1581.4480916584143	752.5142172036252	0.0	1617.0206322583292	779.6216657088501	0.0	1619.2988701402123	769.3881453331433	0.0	1578.247287876333	761.0431021712105	0.0	1476.5151065645337	554.450918168703	0.0	1498.626795978466	484.50201131168194	0.0	1501.598093898462	536.3553329026994	0.0	1427.4608285860513	559.5183347425177	0.0	1399.8379721023275	641.3808649711912	0.0	1392.7351412348914	715.9646433731159	0.0	1521.316948151494	551.5159395749389	0.0	1588.4525228658117	587.3797219169326	0.0	1662.0859384959126	610.0970807286434	0.0
117	1.95	1454.5384914549468	633.4642472245877	0.0	1427.0573193610044	639.411413386357	0.0	1459.6632606187623	681.5220816245603	0.0	1479.955990209644	759.2719826554465	0.0	1497.8381841371383	789.7383833830918	0.0	1477.5100221279818	789.901187600528	0.0	1481.0243158413998	768.6227427104891	0.0	1481.8059689567183	630.8590591687035	0.0	1558.2258091702497	703.3314296701016	0.0	1584.5755842133512	751.9754551643201	0.0	1618.9495801680541	779.0361408726791	0.0	1622.0635316499222	769.3060152921611	0.0	1581.573483233418	760.5740237422438	0.0	1478.5561899867525	553.783697258841	0.0	1500.275052338041	483.87404502526937	0.0	1501.3161077887273	536.0106442876323	0.0	1430.0935573376762	558.139599796916	0.0	1399.0358774429149	637.83548734482	0.0	1383.44741203405	710.861776533826	0.0	1523.403854792782	551.0859171678107	0.0	1586.8372001749838	591.6355332362622	0.0	1655.5816674349765	618.8804170296418	0.0
118	1.9666666666666666	1454.9744565704991	632.8691306945866	0.0	1427.1417656406422	638.8376090318967	0.0	1462.213886224561	681.4457843391305	0.0	1480.7112514833357	759.2748753268984	0.0	1499.2950519115238	789.4011763082132	0.0	1479.3279948604304	789.7725448614765	0.0	1481.232650700389	769.4093044837651	0.0	1483.3109540397675	630.230247595098	0.0	1558.0854166116715	701.8095857146345	0.0	1587.9169535909316	751.1072502649849	0.0	1620.6464285830828	778.2971962578041	0.0	1624.801005437305	768.9382697559048	0.0	1585.2925044439298	759.731444393111	0.0	1479.5578831434218	552.7955676338157	0.0	1500.6575630509644	482.93114316040425	0.0	1499.7675040692893	535.1447985583973	0.0	1431.723148116102	556.7246986851712	0.0	1396.5758302923903	633.1684175955465	0.0	1372.130699974809	703.6852550584107	0.0	1524.4778575851358	550.44652199832	0.0	1582.580528955511	594.854774851066	0.0	1644.3403933861612	626.1618134381615	0.0
